<svg width="187" height="96" viewBox="0 0 187 96" fill="none" xmlns="http://www.w3.org/2000/svg">
<path d="M143.325 0C120.751 0 105.99 18.3744 92.7696 32.2801C79.5507 18.3744 65.8419 0 43.2675 0C17.4953 0 0 20.6362 0 48C0 75.3653 17.4953 96 43.2675 96C66.1356 96 80.805 78.0791 93.9147 64.5588C107.024 78.0791 120.457 96 143.325 96C169.096 96 186.593 75.3653 186.593 48C186.593 20.6362 169.096 0 143.325 0ZM43.2675 76.5406C27.9252 76.5406 18.7274 64.913 18.7274 48C18.7274 31.0855 27.9252 19.4594 43.2675 19.4594C59.1809 19.4594 68.7888 33.8349 81.5694 49.2154C69.866 63.1315 59.6796 76.5406 43.2675 76.5406ZM143.325 76.5406C126.913 76.5406 116.821 61.6463 105.115 47.7302C117.895 32.3498 127.412 19.4594 143.325 19.4594C158.668 19.4594 167.865 31.0855 167.865 48C167.865 64.9145 158.668 76.5406 143.325 76.5406Z" fill="black"/>
</svg>
