<svg width="21" height="17" viewBox="0 0 21 17" fill="none" xmlns="http://www.w3.org/2000/svg">
<path d="M10.052 12.454L7.352 9.933C7.139 9.734 6.794 9.734 6.581 9.933L2 14.201V14.782C2 15.324 2.475 15.765 3.055 15.765H17.82C18.4 15.765 18.875 15.324 18.875 14.782V14.201L14.294 9.931C14.08 9.734 13.734 9.734 13.523 9.931L10.823 12.452C10.61 12.652 10.265 12.652 10.052 12.454ZM15.791 8.536L18.49 11.057C18.702 11.256 18.875 11.18 18.875 10.889V5.465C18.875 5.173 18.702 5.098 18.49 5.297L15.791 7.818C15.577 8.016 15.577 8.337 15.791 8.536ZM3.055 1C2.475 1 2 1.443 2 1.984V2.161L10.011 9.665C10.223 9.864 10.567 9.864 10.779 9.665L18.875 2.072V1.984C18.875 1.443 18.4 1 17.82 1H3.055ZM2 5.465V10.889C2 11.18 2.173 11.256 2.385 11.057L5.084 8.536C5.298 8.337 5.298 8.016 5.084 7.817L2.385 5.297C2.173 5.098 2 5.173 2 5.465Z" fill="black"/>
</svg>
