<svg width="38" height="38" viewBox="0 0 38 38" fill="none" xmlns="http://www.w3.org/2000/svg">
<g clip-path="url(#clip0_6_9)">
<path d="M19 0C15.2422 0 11.5687 1.11433 8.44417 3.20208C5.31964 5.28982 2.88436 8.25722 1.4463 11.729C0.00823236 15.2008 -0.368031 19.0211 0.365088 22.7067C1.09821 26.3924 2.90778 29.7778 5.56498 32.435C8.22218 35.0922 11.6077 36.9018 15.2933 37.6349C18.9789 38.368 22.7992 37.9918 26.271 36.5537C29.7428 35.1156 32.7102 32.6804 34.7979 29.5558C36.8857 26.4313 38 22.7578 38 19C38 13.9609 35.9982 9.12816 32.435 5.56497C28.8718 2.00178 24.0391 0 19 0V0ZM29.71 19.71L23.34 26.07C23.2504 26.1747 23.14 26.2597 23.016 26.3197C22.8919 26.3797 22.7568 26.4135 22.6191 26.4188C22.4813 26.4241 22.344 26.4009 22.2157 26.3506C22.0874 26.3004 21.9708 26.2241 21.8734 26.1266C21.7759 26.0292 21.6996 25.9126 21.6494 25.7843C21.5991 25.656 21.5759 25.5187 21.5812 25.3809C21.5865 25.2432 21.6203 25.1081 21.6803 24.984C21.7403 24.86 21.8253 24.7496 21.93 24.66L26.59 20H8.00001V18H26.59L21.93 13.34C21.8253 13.2504 21.7403 13.14 21.6803 13.016C21.6203 12.8919 21.5865 12.7568 21.5812 12.6191C21.5759 12.4813 21.5991 12.344 21.6494 12.2157C21.6996 12.0874 21.7759 11.9708 21.8734 11.8733C21.9708 11.7759 22.0874 11.6996 22.2157 11.6494C22.344 11.5991 22.4813 11.5759 22.6191 11.5812C22.7568 11.5865 22.8919 11.6203 23.016 11.6803C23.14 11.7403 23.2504 11.8253 23.34 11.93L29.71 18.29C29.8037 18.383 29.8781 18.4936 29.9289 18.6154C29.9797 18.7373 30.0058 18.868 30.0058 19C30.0058 19.132 29.9797 19.2627 29.9289 19.3846C29.8781 19.5064 29.8037 19.617 29.71 19.71Z" fill="white"/>
</g>
<defs>
<clipPath id="clip0_6_9">
<rect width="38" height="38" fill="white"/>
</clipPath>
</defs>
</svg>
