<svg width="12" height="12" viewBox="0 0 12 12" fill="none" xmlns="http://www.w3.org/2000/svg">
<path fill-rule="evenodd" clip-rule="evenodd" d="M10.0072 7.13215L11.6853 8.80679C12.1049 9.22545 12.1049 9.94315 11.6853 10.4216L11.649 10.4579L8.30359 7.24108C8.68225 6.72074 9.49681 6.62287 10.0072 7.13215ZM3.82821 4.32503C3.67476 4.57238 3.61898 4.87379 3.71407 5.15848C4.01374 6.41445 5.63197 7.96947 6.83065 8.26852C7.14507 8.33825 7.47986 8.26573 7.74005 8.0865L10.941 11.1644L10.5466 11.558C9.34789 12.7542 6.17138 11.4384 3.35447 8.62737C0.537555 5.81637 -0.721065 2.64652 0.417686 1.45035L0.624253 1.24422L3.82821 4.32503ZM4.66372 3.74112C5.25401 3.39143 5.38827 2.52295 4.85282 1.98863L3.17466 0.313994C2.69519 -0.104665 1.97598 -0.104665 1.55644 0.313994L1.33225 0.537707L4.66372 3.74112Z" fill="#333333"/>
</svg>
